<svg id="visual" viewBox="0 0 900 600" width="900" height="600" xmlns="http://www.w3.org/2000/svg" xmlns:xlink="http://www.w3.org/1999/xlink" version="1.1"><rect x="0" y="0" width="900" height="600" fill="#101010"></rect><path d="M0 359L21.5 358.3C43 357.7 86 356.3 128.8 364.3C171.7 372.3 214.3 389.7 257.2 402.3C300 415 343 423 385.8 413.7C428.7 404.3 471.3 377.7 514.2 370.8C557 364 600 377 642.8 388C685.7 399 728.3 408 771.2 411.3C814 414.7 857 412.3 878.5 411.2L900 410L900 601L878.5 601C857 601 814 601 771.2 601C728.3 601 685.7 601 642.8 601C600 601 557 601 514.2 601C471.3 601 428.7 601 385.8 601C343 601 300 601 257.2 601C214.3 601 171.7 601 128.8 601C86 601 43 601 21.5 601L0 601Z" fill="#e525ff"></path><path d="M0 452L21.5 446.5C43 441 86 430 128.8 424C171.7 418 214.3 417 257.2 418.3C300 419.7 343 423.3 385.8 427.5C428.7 431.7 471.3 436.3 514.2 440C557 443.7 600 446.3 642.8 440.8C685.7 435.3 728.3 421.7 771.2 410.3C814 399 857 390 878.5 385.5L900 381L900 601L878.5 601C857 601 814 601 771.2 601C728.3 601 685.7 601 642.8 601C600 601 557 601 514.2 601C471.3 601 428.7 601 385.8 601C343 601 300 601 257.2 601C214.3 601 171.7 601 128.8 601C86 601 43 601 21.5 601L0 601Z" fill="#dd02d0"></path><path d="M0 416L21.5 422.8C43 429.7 86 443.3 128.8 448.2C171.7 453 214.3 449 257.2 445.7C300 442.3 343 439.7 385.8 434.5C428.7 429.3 471.3 421.7 514.2 426.7C557 431.7 600 449.3 642.8 457.7C685.7 466 728.3 465 771.2 465.2C814 465.3 857 466.7 878.5 467.3L900 468L900 601L878.5 601C857 601 814 601 771.2 601C728.3 601 685.7 601 642.8 601C600 601 557 601 514.2 601C471.3 601 428.7 601 385.8 601C343 601 300 601 257.2 601C214.3 601 171.7 601 128.8 601C86 601 43 601 21.5 601L0 601Z" fill="#ce00a7"></path><path d="M0 500L21.5 492.2C43 484.3 86 468.7 128.8 462.7C171.7 456.7 214.3 460.3 257.2 461.5C300 462.7 343 461.3 385.8 462C428.7 462.7 471.3 465.3 514.2 467C557 468.7 600 469.3 642.8 472.3C685.7 475.3 728.3 480.7 771.2 487C814 493.3 857 500.7 878.5 504.3L900 508L900 601L878.5 601C857 601 814 601 771.2 601C728.3 601 685.7 601 642.8 601C600 601 557 601 514.2 601C471.3 601 428.7 601 385.8 601C343 601 300 601 257.2 601C214.3 601 171.7 601 128.8 601C86 601 43 601 21.5 601L0 601Z" fill="#b90083"></path><path d="M0 503L21.5 505C43 507 86 511 128.8 507C171.7 503 214.3 491 257.2 491C300 491 343 503 385.8 503.2C428.7 503.3 471.3 491.7 514.2 486.3C557 481 600 482 642.8 490.5C685.7 499 728.3 515 771.2 518.8C814 522.7 857 514.3 878.5 510.2L900 506L900 601L878.5 601C857 601 814 601 771.2 601C728.3 601 685.7 601 642.8 601C600 601 557 601 514.2 601C471.3 601 428.7 601 385.8 601C343 601 300 601 257.2 601C214.3 601 171.7 601 128.8 601C86 601 43 601 21.5 601L0 601Z" fill="#a10064"></path><path d="M0 529L21.5 528.2C43 527.3 86 525.7 128.8 528C171.7 530.3 214.3 536.7 257.2 539.7C300 542.7 343 542.3 385.8 542.5C428.7 542.7 471.3 543.3 514.2 538.3C557 533.3 600 522.7 642.8 518.8C685.7 515 728.3 518 771.2 520.2C814 522.3 857 523.7 878.5 524.3L900 525L900 601L878.5 601C857 601 814 601 771.2 601C728.3 601 685.7 601 642.8 601C600 601 557 601 514.2 601C471.3 601 428.7 601 385.8 601C343 601 300 601 257.2 601C214.3 601 171.7 601 128.8 601C86 601 43 601 21.5 601L0 601Z" fill="#860449"></path><path d="M0 560L21.5 557.7C43 555.3 86 550.7 128.8 549C171.7 547.3 214.3 548.7 257.2 550.8C300 553 343 556 385.8 556.2C428.7 556.3 471.3 553.7 514.2 553.5C557 553.3 600 555.7 642.8 558C685.7 560.3 728.3 562.7 771.2 562.2C814 561.7 857 558.3 878.5 556.7L900 555L900 601L878.5 601C857 601 814 601 771.2 601C728.3 601 685.7 601 642.8 601C600 601 557 601 514.2 601C471.3 601 428.7 601 385.8 601C343 601 300 601 257.2 601C214.3 601 171.7 601 128.8 601C86 601 43 601 21.5 601L0 601Z" fill="#6b0a33"></path></svg>